<svg xmlns="http://www.w3.org/2000/svg" viewBox="0 0 400 280" role="img" aria-label="Pila de libros con una llama"><ellipse cx="200" cy="262" rx="150" ry="9" fill="#E3DAC3"/><rect x="46" y="206" width="300" height="50" rx="3" fill="#4B4332"/><rect x="56" y="217.0" width="280" height="3" fill="#C79A4B"/><rect x="56" y="226.0" width="280" height="1.6" fill="#C79A4B" opacity=".6"/><rect x="70" y="160" width="258" height="46" rx="3" fill="#665C46"/><rect x="80" y="170.12" width="238" height="3" fill="#E3DAC3"/><rect x="80" y="179.12" width="238" height="1.6" fill="#E3DAC3" opacity=".6"/><rect x="54" y="118" width="284" height="42" rx="3" fill="#332C21"/><rect x="64" y="127.24" width="264" height="3" fill="#C79A4B"/><rect x="64" y="136.24" width="264" height="1.6" fill="#C79A4B" opacity=".6"/><rect x="86" y="80" width="230" height="38" rx="3" fill="#847862"/><rect x="96" y="88.36" width="210" height="3" fill="#F0EADB"/><rect x="96" y="97.36" width="210" height="1.6" fill="#F0EADB" opacity=".6"/><path d="M200 22 C213 38 214 52 200 66 C186 52 187 38 200 22 Z" fill="#C79A4B"/><path d="M200 38 C206 47 206 54 200 60 C194 54 194 47 200 38 Z" fill="#F0DDAA"/></svg>